<?xml version="1.0" standalone="no"?>
<!DOCTYPE svg PUBLIC "-//W3C//DTD SVG 20010904//EN"
 "http://www.w3.org/TR/2001/REC-SVG-20010904/DTD/svg10.dtd">
<svg version="1.0" xmlns="http://www.w3.org/2000/svg"
  height="40px" viewBox="0 0 302.000000 95.000000"
 preserveAspectRatio="xMidYMid meet">
<metadata>
Created by potrace 1.16, written by Peter Selinger 2001-2019
</metadata>
<g transform="translate(0.000000,95.000000) scale(0.100000,-0.100000)"
fill="#000000" stroke="none">
<path d="M2400 675 l0 -65 -75 0 -75 0 0 -108 c0 -125 -11 -152 -63 -152 -18
0 -37 4 -44 8 -23 14 -33 64 -33 158 l0 94 -60 0 -60 0 -1 -52 c0 -29 -3 -46
-6 -38 -13 42 -30 62 -68 80 -52 25 -101 25 -143 0 -39 -24 -42 -24 -42 -5 0
12 -13 15 -60 15 l-60 0 0 -57 0 -58 -20 32 c-62 102 -232 123 -327 40 -99
-87 -81 -230 36 -289 109 -56 235 -27 292 67 l19 30 0 -57 0 -58 60 0 60 0 0
108 c0 94 3 111 20 129 40 43 91 37 110 -13 6 -14 10 -70 10 -125 l0 -99 60 0
60 0 1 58 c1 52 2 54 10 25 18 -63 97 -98 204 -91 70 5 110 22 139 61 17 23
22 46 24 118 3 68 7 89 18 89 11 0 14 -18 14 -77 0 -151 34 -198 138 -190 69
5 76 13 56 69 -13 38 -19 45 -36 40 -29 -7 -38 13 -38 91 l0 67 40 0 40 0 0
45 0 45 -40 0 -40 0 0 65 0 65 -60 0 -60 0 0 -65z m-939 -184 c44 -44 33 -108
-21 -131 -55 -23 -110 14 -110 73 0 80 75 113 131 58z"/>
<path d="M385 602 c-129 -62 -155 -209 -52 -299 19 -17 52 -36 73 -43 40 -13
120 -8 154 10 20 11 20 11 0 49 -19 38 -20 39 -64 34 -38 -5 -48 -2 -70 20
-18 18 -26 37 -26 62 0 25 8 44 26 62 22 22 32 25 70 20 44 -5 45 -4 64 34
l20 38 -21 12 c-40 21 -130 22 -174 1z"/>
<path d="M666 605 c-74 -26 -126 -96 -126 -170 0 -171 239 -250 366 -121 l40
41 30 -34 c42 -50 105 -75 170 -68 29 3 62 10 73 17 l21 11 -20 38 c-19 38
-20 39 -64 34 -38 -5 -48 -2 -70 20 -35 36 -35 88 0 124 22 22 32 25 70 20 44
-5 45 -4 64 34 l20 38 -21 11 c-11 7 -44 14 -73 17 -65 7 -128 -18 -170 -68
l-30 -34 -40 41 c-61 62 -153 80 -240 49z m123 -100 c31 -16 41 -33 41 -74 0
-61 -62 -96 -118 -67 -60 31 -58 111 3 144 27 15 41 15 74 -3z"/>
<path d="M2754 396 c-51 -22 -60 -81 -19 -121 48 -49 125 -16 125 54 0 60 -49
91 -106 67z"/>
</g>
</svg>
